<svg viewBox="0 0 1024 1024" xmlns="http://www.w3.org/2000/svg">
  <path
    d="M512 64c60.5 0 119.2 11.8 174.4 35.2 53.3 22.6 101.3 54.9 142.4 96 41.2 41.2 73.5 89.1 96 142.4C948.2 392.8 960 451.5 960 512s-11.8 119.2-35.2 174.4c-22.6 53.3-54.9 101.3-96 142.4-41.2 41.2-89.1 73.5-142.4 96C631.2 948.2 572.5 960 512 960s-119.2-11.8-174.4-35.2c-53.3-22.6-101.3-54.9-142.4-96-41.2-41.2-73.5-89.1-96-142.4C75.8 631.2 64 572.5 64 512s11.8-119.2 35.2-174.4c22.6-53.3 54.9-101.3 96-142.4s89.1-73.5 142.4-96C392.8 75.8 451.5 64 512 64m0-64C229.2 0 0 229.2 0 512s229.2 512 512 512 512-229.2 512-512S794.8 0 512 0z"
    fill="currentColor"
  />
  <path
    d="M544.1 608.2V365.5l124.1 124.1c12.5 12.5 32.8 12.5 45.3 0s12.5-32.8 0-45.3L534.8 265.6l-0.1-0.1c-0.3-0.3-0.7-0.7-1.1-1-0.2-0.2-0.4-0.3-0.6-0.5-0.2-0.2-0.4-0.3-0.6-0.5-0.3-0.2-0.5-0.4-0.8-0.6-0.2-0.1-0.3-0.2-0.5-0.4-0.3-0.2-0.6-0.4-0.8-0.6-0.1-0.1-0.3-0.2-0.4-0.3l-0.9-0.6c-0.1-0.1-0.3-0.2-0.4-0.3-0.3-0.2-0.6-0.3-0.9-0.5-0.2-0.1-0.3-0.2-0.5-0.3-0.3-0.1-0.6-0.3-0.8-0.4l-0.6-0.3c-0.3-0.1-0.5-0.2-0.8-0.3-0.2-0.1-0.5-0.2-0.7-0.3s-0.5-0.2-0.7-0.3c-0.3-0.1-0.5-0.2-0.8-0.3-0.2-0.1-0.4-0.1-0.6-0.2l-0.9-0.3c-0.2-0.1-0.4-0.1-0.5-0.2-0.3-0.1-0.6-0.2-1-0.3-0.2 0-0.3-0.1-0.5-0.1-0.3-0.1-0.7-0.2-1-0.2-0.2 0-0.3-0.1-0.5-0.1-0.3-0.1-0.7-0.1-1-0.2-0.2 0-0.4 0-0.6-0.1-0.3 0-0.6-0.1-1-0.1-0.3 0-0.5 0-0.8-0.1-0.3 0-0.5 0-0.8-0.1h-3.2c-0.3 0-0.5 0-0.8 0.1-0.3 0-0.5 0-0.8 0.1-0.3 0-0.6 0.1-1 0.1-0.2 0-0.4 0-0.6 0.1-0.3 0.1-0.7 0.1-1 0.2-0.2 0-0.3 0.1-0.5 0.1-0.3 0.1-0.7 0.1-1 0.2-0.2 0-0.3 0.1-0.5 0.1-0.3 0.1-0.7 0.2-1 0.3-0.2 0.1-0.4 0.1-0.5 0.2l-0.9 0.3c-0.2 0.1-0.4 0.1-0.6 0.2-0.3 0.1-0.5 0.2-0.8 0.3-0.2 0.1-0.5 0.2-0.7 0.3s-0.4 0.2-0.7 0.3-0.5 0.2-0.8 0.4l-0.6 0.3c-0.3 0.1-0.6 0.3-0.9 0.4-0.2 0.1-0.3 0.2-0.5 0.3-0.3 0.2-0.6 0.3-0.9 0.5-0.1 0.1-0.3 0.2-0.4 0.3l-0.9 0.6c-0.1 0.1-0.3 0.2-0.4 0.3l-0.9 0.6c-0.1 0.1-0.3 0.2-0.4 0.3-0.3 0.2-0.5 0.4-0.8 0.6-0.2 0.1-0.4 0.3-0.5 0.5l-0.6 0.6c-0.3 0.3-0.6 0.6-0.9 0.8-0.1 0.1-0.2 0.2-0.3 0.2L310.5 444.3c-6.2 6.2-9.4 14.4-9.4 22.6s3.1 16.4 9.4 22.6c12.5 12.5 32.8 12.5 45.3 0l124.3-124v242.7c0 17.7 14.3 32 32 32s32-14.3 32-32z"
    fill="currentColor"
  />
  <path d="M512 736m-32 0a32 32 0 1 0 64 0 32 32 0 1 0-64 0Z" fill="currentColor" />
</svg>
